# Tiled2Unity generated file. Do not modify by hand.
# Wavefront file for 'Level_Tuto_mesh_0003.obj'

# Vertices (Count = 48)
v -67 -15 0
v -68 -15 0
v -68 -14 0
v -67 -14 0
v -68 -15 0
v -69 -15 0
v -69 -14 0
v -68 -14 0
v -69 -15 0
v -70 -15 0
v -70 -14 0
v -69 -14 0
v -70 -15 0
v -71 -15 0
v -71 -14 0
v -70 -14 0
v -71 -15 0
v -72 -15 0
v -72 -14 0
v -71 -14 0
v -72 -15 0
v -73 -15 0
v -73 -14 0
v -72 -14 0
v -73 -15 0
v -74 -15 0
v -74 -14 0
v -73 -14 0
v -74 -15 0
v -75 -15 0
v -75 -14 0
v -74 -14 0
v -75 -15 0
v -76 -15 0
v -76 -14 0
v -75 -14 0
v -76 -15 0
v -77 -15 0
v -77 -14 0
v -76 -14 0
v -55 -17 0
v -56 -17 0
v -56 -16 0
v -55 -16 0
v -56 -17 0
v -57 -17 0
v -57 -16 0
v -56 -16 0

# Texture cooridinates (Count = 4)
vt 0.4726477 0.07905984
vt 0.5492342 0.07905984
vt 0.5492342 0.1538461
vt 0.4726477 0.1538461

# Normal
vn 0 0 -1

# Mesh description
g Level_Tuto_mesh_0003

# Faces
f 1/1/1 2/2/1 3/3/1 4/4/1
f 5/1/1 6/2/1 7/3/1 8/4/1
f 9/1/1 10/2/1 11/3/1 12/4/1
f 13/1/1 14/2/1 15/3/1 16/4/1
f 17/1/1 18/2/1 19/3/1 20/4/1
f 21/1/1 22/2/1 23/3/1 24/4/1
f 25/1/1 26/2/1 27/3/1 28/4/1
f 29/1/1 30/2/1 31/3/1 32/4/1
f 33/1/1 34/2/1 35/3/1 36/4/1
f 37/1/1 38/2/1 39/3/1 40/4/1
f 41/1/1 42/2/1 43/3/1 44/4/1
f 45/1/1 46/2/1 47/3/1 48/4/1

