# Tiled2Unity generated file. Do not modify by hand.
# Wavefront file for 'ZoneFinal_mesh_0002.obj'

# Vertices (Count = 64)
v -44 -16 0
v -45 -16 0
v -45 -15 0
v -44 -15 0
v -45 -16 0
v -46 -16 0
v -46 -15 0
v -45 -15 0
v -46 -16 0
v -47 -16 0
v -47 -15 0
v -46 -15 0
v -47 -16 0
v -48 -16 0
v -48 -15 0
v -47 -15 0
v -48 -16 0
v -49 -16 0
v -49 -15 0
v -48 -15 0
v -25 -20 0
v -26 -20 0
v -26 -19 0
v -25 -19 0
v -26 -20 0
v -27 -20 0
v -27 -19 0
v -26 -19 0
v -27 -20 0
v -28 -20 0
v -28 -19 0
v -27 -19 0
v -44 -21 0
v -45 -21 0
v -45 -20 0
v -44 -20 0
v -45 -21 0
v -46 -21 0
v -46 -20 0
v -45 -20 0
v -46 -21 0
v -47 -21 0
v -47 -20 0
v -46 -20 0
v -47 -21 0
v -48 -21 0
v -48 -20 0
v -47 -20 0
v -48 -21 0
v -49 -21 0
v -49 -20 0
v -48 -20 0
v -33 -22 0
v -34 -22 0
v -34 -21 0
v -33 -21 0
v -34 -22 0
v -35 -22 0
v -35 -21 0
v -34 -21 0
v -35 -22 0
v -36 -22 0
v -36 -21 0
v -35 -21 0

# Texture cooridinates (Count = 4)
vt 0.7089716 0.232906
vt 0.785558 0.232906
vt 0.785558 0.3076923
vt 0.7089716 0.3076923

# Normal
vn 0 0 -1

# Mesh description
g ZoneFinal_mesh_0002

# Faces
f 1/1/1 2/2/1 3/3/1 4/4/1
f 5/1/1 6/2/1 7/3/1 8/4/1
f 9/1/1 10/2/1 11/3/1 12/4/1
f 13/1/1 14/2/1 15/3/1 16/4/1
f 17/1/1 18/2/1 19/3/1 20/4/1
f 21/1/1 22/2/1 23/3/1 24/4/1
f 25/1/1 26/2/1 27/3/1 28/4/1
f 29/1/1 30/2/1 31/3/1 32/4/1
f 33/1/1 34/2/1 35/3/1 36/4/1
f 37/1/1 38/2/1 39/3/1 40/4/1
f 41/1/1 42/2/1 43/3/1 44/4/1
f 45/1/1 46/2/1 47/3/1 48/4/1
f 49/1/1 50/2/1 51/3/1 52/4/1
f 53/1/1 54/2/1 55/3/1 56/4/1
f 57/1/1 58/2/1 59/3/1 60/4/1
f 61/1/1 62/2/1 63/3/1 64/4/1

