# Tiled2Unity generated file. Do not modify by hand.
# Wavefront file for 'Niveau_Clement_mesh_0004.obj'

# Vertices (Count = 12)
v -53 -38 0
v -54 -38 0
v -54 -37 0
v -53 -37 0
v -54 -38 0
v -55 -38 0
v -55 -37 0
v -54 -37 0
v -55 -38 0
v -56 -38 0
v -56 -37 0
v -55 -37 0

# Texture cooridinates (Count = 4)
vt 0.8665208 0.7713675
vt 0.9431072 0.7713675
vt 0.9431072 0.8461539
vt 0.8665208 0.8461539

# Normal
vn 0 0 -1

# Mesh description
g Niveau_Clement_mesh_0004

# Faces
f 1/1/1 2/2/1 3/3/1 4/4/1
f 5/1/1 6/2/1 7/3/1 8/4/1
f 9/1/1 10/2/1 11/3/1 12/4/1

