# Tiled2Unity generated file. Do not modify by hand.
# Wavefront file for 'ZoneDebut---Test_mesh_0002.obj'

# Vertices (Count = 68)
v -40 -12 0
v -41 -12 0
v -41 -11 0
v -40 -11 0
v -41 -12 0
v -42 -12 0
v -42 -11 0
v -41 -11 0
v -42 -12 0
v -43 -12 0
v -43 -11 0
v -42 -11 0
v -23 -18 0
v -24 -18 0
v -24 -17 0
v -23 -17 0
v -24 -18 0
v -25 -18 0
v -25 -17 0
v -24 -17 0
v -25 -18 0
v -26 -18 0
v -26 -17 0
v -25 -17 0
v -26 -18 0
v -27 -18 0
v -27 -17 0
v -26 -17 0
v -43 -18 0
v -44 -18 0
v -44 -17 0
v -43 -17 0
v -44 -18 0
v -45 -18 0
v -45 -17 0
v -44 -17 0
v -45 -18 0
v -46 -18 0
v -46 -17 0
v -45 -17 0
v -46 -18 0
v -47 -18 0
v -47 -17 0
v -46 -17 0
v -47 -18 0
v -48 -18 0
v -48 -17 0
v -47 -17 0
v -48 -18 0
v -49 -18 0
v -49 -17 0
v -48 -17 0
v -37 -21 0
v -38 -21 0
v -38 -20 0
v -37 -20 0
v -38 -21 0
v -39 -21 0
v -39 -20 0
v -38 -20 0
v -39 -21 0
v -40 -21 0
v -40 -20 0
v -39 -20 0
v -40 -21 0
v -41 -21 0
v -41 -20 0
v -40 -20 0

# Texture cooridinates (Count = 4)
vt 0.7089716 0.232906
vt 0.785558 0.232906
vt 0.785558 0.3076923
vt 0.7089716 0.3076923

# Normal
vn 0 0 -1

# Mesh description
g ZoneDebut---Test_mesh_0002

# Faces
f 1/1/1 2/2/1 3/3/1 4/4/1
f 5/1/1 6/2/1 7/3/1 8/4/1
f 9/1/1 10/2/1 11/3/1 12/4/1
f 13/1/1 14/2/1 15/3/1 16/4/1
f 17/1/1 18/2/1 19/3/1 20/4/1
f 21/1/1 22/2/1 23/3/1 24/4/1
f 25/1/1 26/2/1 27/3/1 28/4/1
f 29/1/1 30/2/1 31/3/1 32/4/1
f 33/1/1 34/2/1 35/3/1 36/4/1
f 37/1/1 38/2/1 39/3/1 40/4/1
f 41/1/1 42/2/1 43/3/1 44/4/1
f 45/1/1 46/2/1 47/3/1 48/4/1
f 49/1/1 50/2/1 51/3/1 52/4/1
f 53/1/1 54/2/1 55/3/1 56/4/1
f 57/1/1 58/2/1 59/3/1 60/4/1
f 61/1/1 62/2/1 63/3/1 64/4/1
f 65/1/1 66/2/1 67/3/1 68/4/1

